<svg width="128" height="128" viewBox="0 0 128 128" fill="none" xmlns="http://www.w3.org/2000/svg">
<path d="M114 64C114 91.6142 91.6142 114 64 114C36.3858 114 14 91.6142 14 64C14 36.3858 36.3858 14 64 14C91.6142 14 114 36.3858 114 64ZM21.0028 64C21.0028 87.7467 40.2533 106.997 64 106.997C87.7467 106.997 106.997 87.7467 106.997 64C106.997 40.2533 87.7467 21.0028 64 21.0028C40.2533 21.0028 21.0028 40.2533 21.0028 64Z" fill="#333333"/>
<path d="M24 94L64 14L104 94H93V87L78.5 58.5L74.875 51.375L71.25 44.25L64 30L50.5175 56.5L35 87H65L44.6667 68L50.5175 56.5L71.1228 44L74.4298 50.5L51 65L75 87H93V94H24Z" fill="#333333"/>
</svg>
